<!-- icon666.com - MILLIONS OF FREE VECTOR ICONS --><svg id="_x31_" enable-background="new 0 0 24 24" viewBox="0 0 24 24" xmlns="http://www.w3.org/2000/svg"><g><g><path d="m17.5 24c-3.584 0-6.5-2.916-6.5-6.5s2.916-6.5 6.5-6.5 6.5 2.916 6.5 6.5-2.916 6.5-6.5 6.5zm0-12c-3.032 0-5.5 2.467-5.5 5.5s2.468 5.5 5.5 5.5 5.5-2.467 5.5-5.5-2.468-5.5-5.5-5.5z"></path></g></g><g><g><path d="m19.5 21c-.276 0-.5-.224-.5-.5v-2.5h-1.5c-.827 0-1.5-.673-1.5-1.5v-2c0-.276.224-.5.5-.5s.5.224.5.5v2c0 .276.225.5.5.5h2c.276 0 .5.224.5.5v3c0 .276-.224.5-.5.5z"></path></g></g><g><g><path d="m19.5 18c-.276 0-.5-.224-.5-.5v-3c0-.276.224-.5.5-.5s.5.224.5.5v3c0 .276-.224.5-.5.5z"></path></g></g><g><g><path d="m4.129 20c-.102 0-.202-.031-.288-.091-.156-.11-.236-.3-.205-.489l1.08-6.625-4.573-4.689c-.131-.134-.176-.33-.117-.508.06-.178.214-.307.399-.335l6.301-.963 2.822-6.013c.164-.352.74-.352.904 0l2.822 6.013 6.301.963c.186.028.34.158.399.335.059.178.014.374-.117.508l-.847.868c-.192.199-.509.202-.707.009-.197-.193-.201-.509-.008-.707l.167-.171-5.602-.856c-.165-.025-.307-.131-.377-.282l-2.483-5.29-2.483 5.29c-.071.151-.212.257-.377.282l-5.603.855 4.07 4.172c.111.114.161.273.136.43l-.955 5.858 3.5-1.935c.242-.134.547-.046.68.196.134.242.046.546-.195.679l-4.401 2.433c-.077.042-.16.063-.243.063z"></path></g></g></svg>